<mxfile host="65bd71144e">
    <diagram id="S0--mGm_lh5XgWkpP7Ht" name="AstNode一级完整继承图">
        <mxGraphModel dx="3177" dy="1830" grid="1" gridSize="10" guides="1" tooltips="1" connect="1" arrows="1" fold="1" page="1" pageScale="1" pageWidth="850" pageHeight="1100" math="0" shadow="0">
            <root>
                <mxCell id="0"/>
                <mxCell id="1" parent="0"/>
                <mxCell id="2" value="AstNode" style="fontStyle=0;" vertex="1" parent="1">
                    <mxGeometry x="5900" y="70" width="120" height="40" as="geometry"/>
                </mxCell>
                <mxCell id="3" value="AstNodeMath" style="fontStyle=0;" vertex="1" parent="1">
                    <mxGeometry x="160" y="230" width="120" height="40" as="geometry"/>
                </mxCell>
                <mxCell id="4" value="AstNodeBlock" style="fontStyle=0;" vertex="1" parent="1">
                    <mxGeometry x="340" y="230" width="120" height="40" as="geometry"/>
                </mxCell>
                <mxCell id="5" value="AstNodePreSel" style="fontStyle=0;" vertex="1" parent="1">
                    <mxGeometry x="500" y="230" width="120" height="40" as="geometry"/>
                </mxCell>
                <mxCell id="6" value="AstNodeProcedure" style="fontStyle=0;" vertex="1" parent="1">
                    <mxGeometry x="650" y="230" width="120" height="40" as="geometry"/>
                </mxCell>
                <mxCell id="7" value="AstNodeStmt" style="fontStyle=0;" vertex="1" parent="1">
                    <mxGeometry x="800" y="230" width="120" height="40" as="geometry"/>
                </mxCell>
                <mxCell id="8" value="AstNodeText" style="fontStyle=0;" vertex="1" parent="1">
                    <mxGeometry x="950" y="230" width="120" height="40" as="geometry"/>
                </mxCell>
                <mxCell id="9" value="AstNodeDType" style="fontStyle=0;" vertex="1" parent="1">
                    <mxGeometry x="1120" y="230" width="120" height="40" as="geometry"/>
                </mxCell>
                <mxCell id="10" value="AstNodeFTask" style="fontStyle=0;" vertex="1" parent="1">
                    <mxGeometry x="1280" y="230" width="120" height="40" as="geometry"/>
                </mxCell>
                <mxCell id="11" value="AstNodeModule" style="fontStyle=0;" vertex="1" parent="1">
                    <mxGeometry x="1440" y="230" width="120" height="40" as="geometry"/>
                </mxCell>
                <mxCell id="12" value="AstNodeRange" style="fontStyle=0;" vertex="1" parent="1">
                    <mxGeometry x="1620" y="230" width="120" height="40" as="geometry"/>
                </mxCell>
                <mxCell id="13" value="AstClassExtends" style="fontStyle=0;" vertex="1" parent="1">
                    <mxGeometry x="1790" y="230" width="120" height="40" as="geometry"/>
                </mxCell>
                <mxCell id="14" value="AstNodeRange" style="fontStyle=0;" vertex="1" parent="1">
                    <mxGeometry x="1950" y="230" width="120" height="40" as="geometry"/>
                </mxCell>
                <mxCell id="15" value="AstTypedefFwd" style="fontStyle=0;" vertex="1" parent="1">
                    <mxGeometry x="2120" y="230" width="120" height="40" as="geometry"/>
                </mxCell>
                <mxCell id="16" value="AstEnumItem" style="fontStyle=0;" vertex="1" parent="1">
                    <mxGeometry x="2280" y="230" width="120" height="40" as="geometry"/>
                </mxCell>
                <mxCell id="17" value="AstSelLoopVars" style="fontStyle=0;" vertex="1" parent="1">
                    <mxGeometry x="2440" y="230" width="120" height="40" as="geometry"/>
                </mxCell>
                <mxCell id="18" value="AstVar" style="fontStyle=0;" vertex="1" parent="1">
                    <mxGeometry x="2600" y="230" width="120" height="40" as="geometry"/>
                </mxCell>
                <mxCell id="19" value="AstDefParam" style="fontStyle=0;" vertex="1" parent="1">
                    <mxGeometry x="2760" y="230" width="120" height="40" as="geometry"/>
                </mxCell>
                <mxCell id="23" value="AstImplicit" style="fontStyle=0;" vertex="1" parent="1">
                    <mxGeometry x="2915" y="230" width="120" height="40" as="geometry"/>
                </mxCell>
                <mxCell id="24" value="AstScope" style="fontStyle=0;" vertex="1" parent="1">
                    <mxGeometry x="3070" y="230" width="120" height="40" as="geometry"/>
                </mxCell>
                <mxCell id="25" value="AstTopScope" style="fontStyle=0;" vertex="1" parent="1">
                    <mxGeometry x="3230" y="230" width="120" height="40" as="geometry"/>
                </mxCell>
                <mxCell id="26" value="AstVarScope" style="fontStyle=0;" vertex="1" parent="1">
                    <mxGeometry x="3390" y="230" width="120" height="40" as="geometry"/>
                </mxCell>
                <mxCell id="27" value="AstVarScope" style="fontStyle=0;" vertex="1" parent="1">
                    <mxGeometry x="3550" y="230" width="120" height="40" as="geometry"/>
                </mxCell>
                <mxCell id="28" value="AstPin" style="fontStyle=0;" vertex="1" parent="1">
                    <mxGeometry x="3710" y="230" width="120" height="40" as="geometry"/>
                </mxCell>
                <mxCell id="29" value="AstArg" style="fontStyle=0;" vertex="1" parent="1">
                    <mxGeometry x="3870" y="230" width="120" height="40" as="geometry"/>
                </mxCell>
                <mxCell id="30" value="AstPackageExportStarStar" style="fontStyle=0;" vertex="1" parent="1">
                    <mxGeometry x="4020" y="230" width="160" height="40" as="geometry"/>
                </mxCell>
                <mxCell id="31" value="AstPackageExport" style="fontStyle=0;" vertex="1" parent="1">
                    <mxGeometry x="4210" y="230" width="120" height="40" as="geometry"/>
                </mxCell>
                <mxCell id="32" value="AstPackageImport" style="fontStyle=0;" vertex="1" parent="1">
                    <mxGeometry x="4360" y="230" width="120" height="40" as="geometry"/>
                </mxCell>
                <mxCell id="33" value="AstModportFTaskRef" style="fontStyle=0;" vertex="1" parent="1">
                    <mxGeometry x="4500" y="230" width="120" height="40" as="geometry"/>
                </mxCell>
                <mxCell id="34" value="AstModportVarRef" style="fontStyle=0;" vertex="1" parent="1">
                    <mxGeometry x="4650" y="230" width="120" height="40" as="geometry"/>
                </mxCell>
                <mxCell id="35" value="AstModport" style="fontStyle=0;" vertex="1" parent="1">
                    <mxGeometry x="4800" y="230" width="120" height="40" as="geometry"/>
                </mxCell>
                <mxCell id="36" value="AstIntfRef" style="fontStyle=0;" vertex="1" parent="1">
                    <mxGeometry x="4940" y="230" width="120" height="40" as="geometry"/>
                </mxCell>
                <mxCell id="37" value="AstCell" style="fontStyle=0;" vertex="1" parent="1">
                    <mxGeometry x="5090" y="230" width="120" height="40" as="geometry"/>
                </mxCell>
                <mxCell id="38" value="AstCellInline" style="fontStyle=0;" vertex="1" parent="1">
                    <mxGeometry x="5250" y="230" width="120" height="40" as="geometry"/>
                </mxCell>
                <mxCell id="39" value="AstCellRef" style="fontStyle=0;" vertex="1" parent="1">
                    <mxGeometry x="5410" y="230" width="120" height="40" as="geometry"/>
                </mxCell>
                <mxCell id="40" value="AstCellArrayRef" style="fontStyle=0;" vertex="1" parent="1">
                    <mxGeometry x="5570" y="230" width="120" height="40" as="geometry"/>
                </mxCell>
                <mxCell id="41" value="AstUnlinkedRef" style="fontStyle=0;" vertex="1" parent="1">
                    <mxGeometry x="5740" y="230" width="120" height="40" as="geometry"/>
                </mxCell>
                <mxCell id="42" value="AstBind" style="fontStyle=0;" vertex="1" parent="1">
                    <mxGeometry x="5900" y="230" width="120" height="40" as="geometry"/>
                </mxCell>
                <mxCell id="44" value="AstPort" style="fontStyle=0;" vertex="1" parent="1">
                    <mxGeometry x="6060" y="230" width="120" height="40" as="geometry"/>
                </mxCell>
                <mxCell id="45" value="AstParseRef" style="fontStyle=0;" vertex="1" parent="1">
                    <mxGeometry x="6210" y="230" width="120" height="40" as="geometry"/>
                </mxCell>
                <mxCell id="46" value="AstClassOrPackageRef" style="fontStyle=0;" vertex="1" parent="1">
                    <mxGeometry x="6360" y="230" width="140" height="40" as="geometry"/>
                </mxCell>
                <mxCell id="47" value="AstDot" style="fontStyle=0;" vertex="1" parent="1">
                    <mxGeometry x="6530" y="230" width="140" height="40" as="geometry"/>
                </mxCell>
                <mxCell id="48" value="AstDpiExport" style="fontStyle=0;" vertex="1" parent="1">
                    <mxGeometry x="6700" y="230" width="140" height="40" as="geometry"/>
                </mxCell>
                <mxCell id="49" value="AstSenItem" style="fontStyle=0;" vertex="1" parent="1">
                    <mxGeometry x="6870" y="230" width="140" height="40" as="geometry"/>
                </mxCell>
                <mxCell id="50" value="AstSenTree" style="fontStyle=0;" vertex="1" parent="1">
                    <mxGeometry x="7040" y="230" width="140" height="40" as="geometry"/>
                </mxCell>
                <mxCell id="51" value="AstPull" style="fontStyle=0;" vertex="1" parent="1">
                    <mxGeometry x="7225" y="230" width="140" height="40" as="geometry"/>
                </mxCell>
                <mxCell id="52" value="AstPull" style="fontStyle=0;" vertex="1" parent="1">
                    <mxGeometry x="7400" y="230" width="140" height="40" as="geometry"/>
                </mxCell>
                <mxCell id="53" value="AstCaseItem" style="fontStyle=0;" vertex="1" parent="1">
                    <mxGeometry x="7580" y="230" width="140" height="40" as="geometry"/>
                </mxCell>
                <mxCell id="54" value="AstSFormatF" style="fontStyle=0;" vertex="1" parent="1">
                    <mxGeometry x="7760" y="230" width="140" height="40" as="geometry"/>
                </mxCell>
                <mxCell id="55" value="AstElabDisplay" style="fontStyle=0;" vertex="1" parent="1">
                    <mxGeometry x="7935" y="230" width="140" height="40" as="geometry"/>
                </mxCell>
                <mxCell id="56" value="AstInitItem" style="fontStyle=0;" vertex="1" parent="1">
                    <mxGeometry x="8110" y="230" width="140" height="40" as="geometry"/>
                </mxCell>
                <mxCell id="57" value="AstInitArray" style="fontStyle=0;" vertex="1" parent="1">
                    <mxGeometry x="8290" y="230" width="140" height="40" as="geometry"/>
                </mxCell>
                <mxCell id="58" value="AstPragma" style="fontStyle=0;" vertex="1" parent="1">
                    <mxGeometry x="8470" y="230" width="140" height="40" as="geometry"/>
                </mxCell>
                <mxCell id="59" value="AstActive" style="fontStyle=0;" vertex="1" parent="1">
                    <mxGeometry x="8640" y="230" width="140" height="40" as="geometry"/>
                </mxCell>
                <mxCell id="60" value="AstAttrOf" style="fontStyle=0;" vertex="1" parent="1">
                    <mxGeometry x="8820" y="230" width="140" height="40" as="geometry"/>
                </mxCell>
                <mxCell id="61" value="AstUdpTable" style="fontStyle=0;" vertex="1" parent="1">
                    <mxGeometry x="9000" y="230" width="140" height="40" as="geometry"/>
                </mxCell>
                <mxCell id="62" value="AstUdpTableLine" style="fontStyle=0;" vertex="1" parent="1">
                    <mxGeometry x="9170" y="230" width="140" height="40" as="geometry"/>
                </mxCell>
                <mxCell id="63" value="AstCast" style="fontStyle=0;" vertex="1" parent="1">
                    <mxGeometry x="9350" y="230" width="140" height="40" as="geometry"/>
                </mxCell>
                <mxCell id="64" value="AstCastParse" style="fontStyle=0;" vertex="1" parent="1">
                    <mxGeometry x="9530" y="230" width="140" height="40" as="geometry"/>
                </mxCell>
                <mxCell id="65" value="AstCastSize" style="fontStyle=0;" vertex="1" parent="1">
                    <mxGeometry x="9705" y="230" width="140" height="40" as="geometry"/>
                </mxCell>
                <mxCell id="66" value="AstCFunc" style="fontStyle=0;" vertex="1" parent="1">
                    <mxGeometry x="9890" y="230" width="140" height="40" as="geometry"/>
                </mxCell>
                <mxCell id="67" value="AstCUse" style="fontStyle=0;" vertex="1" parent="1">
                    <mxGeometry x="10070" y="230" width="140" height="40" as="geometry"/>
                </mxCell>
                <mxCell id="68" value="AstMTaskBody" style="fontStyle=0;" vertex="1" parent="1">
                    <mxGeometry x="10240" y="230" width="140" height="40" as="geometry"/>
                </mxCell>
                <mxCell id="69" value="AstExecGraph" style="fontStyle=0;" vertex="1" parent="1">
                    <mxGeometry x="10410" y="230" width="140" height="40" as="geometry"/>
                </mxCell>
                <mxCell id="70" value="AstSplitPlaceholder" style="fontStyle=0;" vertex="1" parent="1">
                    <mxGeometry x="10580" y="230" width="140" height="40" as="geometry"/>
                </mxCell>
                <mxCell id="71" value="AstTypeTable" style="fontStyle=0;" vertex="1" parent="1">
                    <mxGeometry x="10750" y="230" width="140" height="40" as="geometry"/>
                </mxCell>
                <mxCell id="72" value="AstConstPool" style="fontStyle=0;" vertex="1" parent="1">
                    <mxGeometry x="10930" y="230" width="140" height="40" as="geometry"/>
                </mxCell>
                <mxCell id="73" value="AstNetlist" style="fontStyle=0;" vertex="1" parent="1">
                    <mxGeometry x="11110" y="230" width="140" height="40" as="geometry"/>
                </mxCell>
            </root>
        </mxGraphModel>
    </diagram>
</mxfile>